<svg xmlns="http://www.w3.org/2000/svg" viewBox="0 0 200 60" width="200" height="60">
  <!-- Square wordmark: black pill background with white text, renders on any bg -->
  <rect width="200" height="60" rx="10" fill="#000000"/>
  <!-- Square icon mark (nested squares, white) -->
  <g transform="translate(16, 12) scale(0.67)">
    <!-- Outer rounded square -->
    <path d="M44.4 0H9.8C4.4 0 0 4.4 0 9.8v34.6C0 49.8 4.4 54.2 9.8 54.2h34.6c5.4 0 9.8-4.4 9.8-9.8V9.8C54.2 4.4 49.8 0 44.4 0zm.8 41.6c0 1.6-1.3 2.9-2.9 2.9H11.8c-1.6 0-2.9-1.3-2.9-2.9V13.4c0-1.6 1.3-2.9 2.9-2.9h30.5c1.6 0 2.9 1.3 2.9 2.9v28.2z" fill="#ffffff"/>
    <!-- Inner square -->
    <path d="M34.9 20.3H19.5c-.9 0-1.6.7-1.6 1.6v11.2c0 .9.7 1.6 1.6 1.6h15.4c.9 0 1.6-.7 1.6-1.6V21.9c0-.9-.7-1.6-1.6-1.6z" fill="#ffffff"/>
  </g>
  <!-- "Square" wordmark text -->
  <text x="56" y="39" font-family="-apple-system, BlinkMacSystemFont, 'Helvetica Neue', Helvetica, sans-serif" font-size="26" font-weight="600" letter-spacing="-0.5" fill="#ffffff">Square</text>
</svg>
